<mxfile host="app.diagrams.net" modified="2023-05-28T18:55:01.796Z" agent="Mozilla/5.0 (Windows NT 10.0; Win64; x64) AppleWebKit/537.36 (KHTML, like Gecko) Chrome/112.0.0.0 Safari/537.36 OPR/98.0.0.0" etag="mQcgGuZZcjkh-7ePY-ZG" version="21.3.5" type="device">
  <diagram id="6a731a19-8d31-9384-78a2-239565b7b9f0" name="Page-1">
    <mxGraphModel dx="1404" dy="898" grid="1" gridSize="10" guides="1" tooltips="1" connect="1" arrows="1" fold="1" page="1" pageScale="1" pageWidth="1169" pageHeight="827" background="none" math="0" shadow="0">
      <root>
        <mxCell id="0" />
        <mxCell id="1" parent="0" />
        <mxCell id="jZNgXRMAR-QyzdiI5EhI-145" style="edgeStyle=orthogonalEdgeStyle;rounded=0;orthogonalLoop=1;jettySize=auto;html=1;entryX=0.5;entryY=0;entryDx=0;entryDy=0;strokeWidth=3;" edge="1" parent="1" source="jZNgXRMAR-QyzdiI5EhI-143" target="jZNgXRMAR-QyzdiI5EhI-144">
          <mxGeometry relative="1" as="geometry" />
        </mxCell>
        <mxCell id="jZNgXRMAR-QyzdiI5EhI-143" value="" style="ellipse;whiteSpace=wrap;html=1;aspect=fixed;strokeColor=#000000;fillColor=#000000;" vertex="1" parent="1">
          <mxGeometry x="80" y="40" width="40" height="40" as="geometry" />
        </mxCell>
        <mxCell id="jZNgXRMAR-QyzdiI5EhI-147" style="edgeStyle=orthogonalEdgeStyle;rounded=0;orthogonalLoop=1;jettySize=auto;html=1;entryX=0;entryY=0.5;entryDx=0;entryDy=0;strokeWidth=3;endArrow=none;endFill=0;" edge="1" parent="1" source="jZNgXRMAR-QyzdiI5EhI-144" target="jZNgXRMAR-QyzdiI5EhI-146">
          <mxGeometry relative="1" as="geometry" />
        </mxCell>
        <mxCell id="jZNgXRMAR-QyzdiI5EhI-144" value="Mensagem recebida" style="rounded=1;whiteSpace=wrap;html=1;fontSize=14;" vertex="1" parent="1">
          <mxGeometry x="40" y="120" width="120" height="60" as="geometry" />
        </mxCell>
        <mxCell id="jZNgXRMAR-QyzdiI5EhI-150" value="[Formato inválido]" style="edgeStyle=orthogonalEdgeStyle;rounded=0;orthogonalLoop=1;jettySize=auto;html=1;entryX=0.5;entryY=0;entryDx=0;entryDy=0;strokeWidth=3;fontSize=12;exitX=0.5;exitY=1;exitDx=0;exitDy=0;" edge="1" parent="1" source="jZNgXRMAR-QyzdiI5EhI-146">
          <mxGeometry relative="1" as="geometry">
            <mxPoint x="290" y="280" as="targetPoint" />
          </mxGeometry>
        </mxCell>
        <mxCell id="jZNgXRMAR-QyzdiI5EhI-152" value="[Formato válido]" style="edgeStyle=orthogonalEdgeStyle;rounded=0;orthogonalLoop=1;jettySize=auto;html=1;entryX=0;entryY=0.5;entryDx=0;entryDy=0;fontSize=12;strokeWidth=3;exitX=1;exitY=0.5;exitDx=0;exitDy=0;" edge="1" parent="1" source="jZNgXRMAR-QyzdiI5EhI-146" target="jZNgXRMAR-QyzdiI5EhI-155">
          <mxGeometry x="-0.1579" relative="1" as="geometry">
            <mxPoint x="100" y="354" as="targetPoint" />
            <mxPoint as="offset" />
          </mxGeometry>
        </mxCell>
        <mxCell id="jZNgXRMAR-QyzdiI5EhI-146" value="" style="rhombus;whiteSpace=wrap;html=1;" vertex="1" parent="1">
          <mxGeometry x="270" y="130" width="40" height="40" as="geometry" />
        </mxCell>
        <mxCell id="jZNgXRMAR-QyzdiI5EhI-159" value="[Remetente&amp;nbsp;&lt;br&gt;desconhecido]" style="edgeStyle=orthogonalEdgeStyle;rounded=0;orthogonalLoop=1;jettySize=auto;html=1;entryX=0.5;entryY=0;entryDx=0;entryDy=0;strokeWidth=3;exitX=0.5;exitY=1;exitDx=0;exitDy=0;" edge="1" parent="1" source="jZNgXRMAR-QyzdiI5EhI-155">
          <mxGeometry relative="1" as="geometry">
            <mxPoint x="520" y="280" as="targetPoint" />
          </mxGeometry>
        </mxCell>
        <mxCell id="jZNgXRMAR-QyzdiI5EhI-162" value="[Remetente&lt;br&gt;conhecido]" style="edgeStyle=orthogonalEdgeStyle;rounded=0;orthogonalLoop=1;jettySize=auto;html=1;entryX=0;entryY=0.5;entryDx=0;entryDy=0;strokeWidth=3;exitX=1;exitY=0.5;exitDx=0;exitDy=0;" edge="1" parent="1" source="jZNgXRMAR-QyzdiI5EhI-155" target="jZNgXRMAR-QyzdiI5EhI-163">
          <mxGeometry relative="1" as="geometry">
            <mxPoint x="100" y="480" as="targetPoint" />
          </mxGeometry>
        </mxCell>
        <mxCell id="jZNgXRMAR-QyzdiI5EhI-155" value="" style="rhombus;whiteSpace=wrap;html=1;" vertex="1" parent="1">
          <mxGeometry x="500" y="130" width="40" height="40" as="geometry" />
        </mxCell>
        <mxCell id="jZNgXRMAR-QyzdiI5EhI-165" value="[Operação inválida]" style="edgeStyle=orthogonalEdgeStyle;rounded=0;orthogonalLoop=1;jettySize=auto;html=1;exitX=0.5;exitY=1;exitDx=0;exitDy=0;strokeWidth=3;" edge="1" parent="1" source="jZNgXRMAR-QyzdiI5EhI-163">
          <mxGeometry relative="1" as="geometry">
            <mxPoint x="690" y="280" as="targetPoint" />
          </mxGeometry>
        </mxCell>
        <mxCell id="jZNgXRMAR-QyzdiI5EhI-171" value="[Operação&lt;br&gt;válida]" style="edgeStyle=orthogonalEdgeStyle;rounded=0;orthogonalLoop=1;jettySize=auto;html=1;entryX=0;entryY=0.5;entryDx=0;entryDy=0;strokeWidth=3;exitX=1;exitY=0.5;exitDx=0;exitDy=0;" edge="1" parent="1" source="jZNgXRMAR-QyzdiI5EhI-163" target="jZNgXRMAR-QyzdiI5EhI-169">
          <mxGeometry relative="1" as="geometry">
            <Array as="points">
              <mxPoint x="770" y="150" />
              <mxPoint x="770" y="150" />
            </Array>
          </mxGeometry>
        </mxCell>
        <mxCell id="jZNgXRMAR-QyzdiI5EhI-163" value="" style="rhombus;whiteSpace=wrap;html=1;" vertex="1" parent="1">
          <mxGeometry x="670" y="130" width="40" height="40" as="geometry" />
        </mxCell>
        <mxCell id="jZNgXRMAR-QyzdiI5EhI-189" style="edgeStyle=orthogonalEdgeStyle;rounded=0;orthogonalLoop=1;jettySize=auto;html=1;endArrow=none;endFill=0;startArrow=classic;startFill=1;strokeWidth=3;" edge="1" parent="1" source="jZNgXRMAR-QyzdiI5EhI-164">
          <mxGeometry relative="1" as="geometry">
            <mxPoint x="510" y="280" as="targetPoint" />
          </mxGeometry>
        </mxCell>
        <mxCell id="jZNgXRMAR-QyzdiI5EhI-204" style="edgeStyle=orthogonalEdgeStyle;rounded=0;orthogonalLoop=1;jettySize=auto;html=1;entryX=0.5;entryY=0;entryDx=0;entryDy=0;" edge="1" parent="1" source="jZNgXRMAR-QyzdiI5EhI-164" target="jZNgXRMAR-QyzdiI5EhI-201">
          <mxGeometry relative="1" as="geometry" />
        </mxCell>
        <mxCell id="jZNgXRMAR-QyzdiI5EhI-164" value="Registro do&lt;br&gt;evento" style="rounded=1;whiteSpace=wrap;html=1;fontSize=14;" vertex="1" parent="1">
          <mxGeometry x="450" y="320" width="120" height="60" as="geometry" />
        </mxCell>
        <mxCell id="jZNgXRMAR-QyzdiI5EhI-173" value="[Máquina isolada]" style="edgeStyle=orthogonalEdgeStyle;rounded=0;orthogonalLoop=1;jettySize=auto;html=1;entryX=0;entryY=0.5;entryDx=0;entryDy=0;strokeWidth=3;fontSize=11;exitX=1;exitY=0.5;exitDx=0;exitDy=0;" edge="1" parent="1" source="jZNgXRMAR-QyzdiI5EhI-169" target="jZNgXRMAR-QyzdiI5EhI-176">
          <mxGeometry relative="1" as="geometry">
            <mxPoint x="280" y="620" as="targetPoint" />
          </mxGeometry>
        </mxCell>
        <mxCell id="jZNgXRMAR-QyzdiI5EhI-175" value="[Máquina em&amp;nbsp;&lt;br&gt;um arranjo]" style="edgeStyle=orthogonalEdgeStyle;rounded=0;orthogonalLoop=1;jettySize=auto;html=1;strokeWidth=3;exitX=0.5;exitY=1;exitDx=0;exitDy=0;entryX=0.5;entryY=0;entryDx=0;entryDy=0;" edge="1" parent="1" source="jZNgXRMAR-QyzdiI5EhI-169" target="jZNgXRMAR-QyzdiI5EhI-192">
          <mxGeometry x="-0.5" relative="1" as="geometry">
            <mxPoint x="840" y="310" as="targetPoint" />
            <Array as="points">
              <mxPoint x="840" y="270" />
              <mxPoint x="840" y="270" />
            </Array>
            <mxPoint y="-1" as="offset" />
          </mxGeometry>
        </mxCell>
        <mxCell id="jZNgXRMAR-QyzdiI5EhI-169" value="" style="rhombus;whiteSpace=wrap;html=1;" vertex="1" parent="1">
          <mxGeometry x="820" y="130" width="40" height="40" as="geometry" />
        </mxCell>
        <mxCell id="jZNgXRMAR-QyzdiI5EhI-179" value="[A máquina possui&lt;br&gt;as informações]" style="edgeStyle=orthogonalEdgeStyle;rounded=0;orthogonalLoop=1;jettySize=auto;html=1;strokeWidth=3;exitX=0.5;exitY=1;exitDx=0;exitDy=0;" edge="1" parent="1" source="jZNgXRMAR-QyzdiI5EhI-176">
          <mxGeometry x="-0.2502" relative="1" as="geometry">
            <mxPoint x="960" y="270" as="sourcePoint" />
            <mxPoint x="1000" y="280" as="targetPoint" />
            <Array as="points">
              <mxPoint x="1000" y="260" />
              <mxPoint x="1000" y="260" />
            </Array>
            <mxPoint as="offset" />
          </mxGeometry>
        </mxCell>
        <mxCell id="jZNgXRMAR-QyzdiI5EhI-182" value="[A máquina não&lt;br&gt;possui as informações]" style="edgeStyle=orthogonalEdgeStyle;rounded=0;orthogonalLoop=1;jettySize=auto;html=1;strokeWidth=3;exitX=1;exitY=0.5;exitDx=0;exitDy=0;" edge="1" parent="1" source="jZNgXRMAR-QyzdiI5EhI-176">
          <mxGeometry x="0.2856" relative="1" as="geometry">
            <mxPoint x="1120" y="280" as="targetPoint" />
            <Array as="points">
              <mxPoint x="1120" y="150" />
            </Array>
            <mxPoint as="offset" />
          </mxGeometry>
        </mxCell>
        <mxCell id="jZNgXRMAR-QyzdiI5EhI-176" value="" style="rhombus;whiteSpace=wrap;html=1;" vertex="1" parent="1">
          <mxGeometry x="980" y="130" width="40" height="40" as="geometry" />
        </mxCell>
        <mxCell id="jZNgXRMAR-QyzdiI5EhI-183" style="edgeStyle=orthogonalEdgeStyle;rounded=0;orthogonalLoop=1;jettySize=auto;html=1;strokeWidth=3;endArrow=none;endFill=0;startArrow=classic;startFill=1;" edge="1" parent="1" source="jZNgXRMAR-QyzdiI5EhI-178">
          <mxGeometry relative="1" as="geometry">
            <mxPoint x="1060" y="280" as="targetPoint" />
          </mxGeometry>
        </mxCell>
        <mxCell id="jZNgXRMAR-QyzdiI5EhI-210" style="edgeStyle=orthogonalEdgeStyle;rounded=0;orthogonalLoop=1;jettySize=auto;html=1;entryX=0.5;entryY=0;entryDx=0;entryDy=0;" edge="1" parent="1" source="jZNgXRMAR-QyzdiI5EhI-178" target="jZNgXRMAR-QyzdiI5EhI-208">
          <mxGeometry relative="1" as="geometry" />
        </mxCell>
        <mxCell id="jZNgXRMAR-QyzdiI5EhI-178" value="Resposta ao&amp;nbsp;&lt;br&gt;remetente" style="rounded=1;whiteSpace=wrap;html=1;fontSize=14;" vertex="1" parent="1">
          <mxGeometry x="1000" y="320" width="120" height="60" as="geometry" />
        </mxCell>
        <mxCell id="jZNgXRMAR-QyzdiI5EhI-181" value="" style="endArrow=none;html=1;rounded=0;strokeWidth=3;" edge="1" parent="1">
          <mxGeometry width="50" height="50" relative="1" as="geometry">
            <mxPoint x="990" y="280" as="sourcePoint" />
            <mxPoint x="1130" y="280" as="targetPoint" />
          </mxGeometry>
        </mxCell>
        <mxCell id="jZNgXRMAR-QyzdiI5EhI-188" value="" style="endArrow=none;html=1;rounded=0;strokeWidth=3;" edge="1" parent="1">
          <mxGeometry width="50" height="50" relative="1" as="geometry">
            <mxPoint x="240" y="280" as="sourcePoint" />
            <mxPoint x="750" y="280" as="targetPoint" />
          </mxGeometry>
        </mxCell>
        <mxCell id="jZNgXRMAR-QyzdiI5EhI-194" style="edgeStyle=orthogonalEdgeStyle;rounded=0;orthogonalLoop=1;jettySize=auto;html=1;entryX=0.5;entryY=0;entryDx=0;entryDy=0;endArrow=none;endFill=0;strokeWidth=3;" edge="1" parent="1" source="jZNgXRMAR-QyzdiI5EhI-192" target="jZNgXRMAR-QyzdiI5EhI-193">
          <mxGeometry relative="1" as="geometry">
            <mxPoint x="840" y="410" as="targetPoint" />
          </mxGeometry>
        </mxCell>
        <mxCell id="jZNgXRMAR-QyzdiI5EhI-192" value="Requisita a informação a outras máquinas" style="rounded=1;whiteSpace=wrap;html=1;fontSize=14;" vertex="1" parent="1">
          <mxGeometry x="780" y="250" width="120" height="60" as="geometry" />
        </mxCell>
        <mxCell id="jZNgXRMAR-QyzdiI5EhI-198" value="[Ninguém possui&lt;br&gt;a informação]" style="edgeStyle=orthogonalEdgeStyle;rounded=0;orthogonalLoop=1;jettySize=auto;html=1;strokeWidth=3;" edge="1" parent="1" source="jZNgXRMAR-QyzdiI5EhI-193">
          <mxGeometry x="0.1961" relative="1" as="geometry">
            <mxPoint x="790" y="420" as="targetPoint" />
            <mxPoint as="offset" />
          </mxGeometry>
        </mxCell>
        <mxCell id="jZNgXRMAR-QyzdiI5EhI-199" value="[Alguém possui&lt;br&gt;&amp;nbsp;a informação]" style="edgeStyle=orthogonalEdgeStyle;rounded=0;orthogonalLoop=1;jettySize=auto;html=1;strokeWidth=3;" edge="1" parent="1" source="jZNgXRMAR-QyzdiI5EhI-193">
          <mxGeometry x="0.2039" relative="1" as="geometry">
            <mxPoint x="890" y="420" as="targetPoint" />
            <mxPoint as="offset" />
          </mxGeometry>
        </mxCell>
        <mxCell id="jZNgXRMAR-QyzdiI5EhI-193" value="" style="rhombus;whiteSpace=wrap;html=1;" vertex="1" parent="1">
          <mxGeometry x="820" y="330" width="40" height="40" as="geometry" />
        </mxCell>
        <mxCell id="jZNgXRMAR-QyzdiI5EhI-200" style="edgeStyle=orthogonalEdgeStyle;rounded=0;orthogonalLoop=1;jettySize=auto;html=1;strokeWidth=3;endArrow=none;endFill=0;startArrow=blockThin;startFill=1;" edge="1" parent="1" source="jZNgXRMAR-QyzdiI5EhI-196">
          <mxGeometry relative="1" as="geometry">
            <mxPoint x="840" y="420" as="targetPoint" />
          </mxGeometry>
        </mxCell>
        <mxCell id="jZNgXRMAR-QyzdiI5EhI-207" style="edgeStyle=orthogonalEdgeStyle;rounded=0;orthogonalLoop=1;jettySize=auto;html=1;entryX=0.5;entryY=0;entryDx=0;entryDy=0;" edge="1" parent="1" source="jZNgXRMAR-QyzdiI5EhI-196" target="jZNgXRMAR-QyzdiI5EhI-205">
          <mxGeometry relative="1" as="geometry" />
        </mxCell>
        <mxCell id="jZNgXRMAR-QyzdiI5EhI-196" value="Resposta ao&amp;nbsp;&lt;br&gt;remetente" style="rounded=1;whiteSpace=wrap;html=1;fontSize=14;" vertex="1" parent="1">
          <mxGeometry x="780" y="460" width="120" height="60" as="geometry" />
        </mxCell>
        <mxCell id="jZNgXRMAR-QyzdiI5EhI-197" value="" style="endArrow=none;html=1;rounded=0;strokeWidth=3;" edge="1" parent="1">
          <mxGeometry width="50" height="50" relative="1" as="geometry">
            <mxPoint x="770" y="420" as="sourcePoint" />
            <mxPoint x="910" y="420" as="targetPoint" />
          </mxGeometry>
        </mxCell>
        <mxCell id="jZNgXRMAR-QyzdiI5EhI-201" value="" style="ellipse;whiteSpace=wrap;html=1;aspect=fixed;strokeColor=#000000;fillColor=#FFFFFF;strokeWidth=2;" vertex="1" parent="1">
          <mxGeometry x="490" y="414" width="40" height="40" as="geometry" />
        </mxCell>
        <mxCell id="jZNgXRMAR-QyzdiI5EhI-202" value="" style="ellipse;whiteSpace=wrap;html=1;aspect=fixed;strokeColor=#000000;fillColor=#000000;" vertex="1" parent="1">
          <mxGeometry x="493.5" y="417.5" width="33" height="33" as="geometry" />
        </mxCell>
        <mxCell id="jZNgXRMAR-QyzdiI5EhI-205" value="" style="ellipse;whiteSpace=wrap;html=1;aspect=fixed;strokeColor=#000000;fillColor=#FFFFFF;strokeWidth=2;" vertex="1" parent="1">
          <mxGeometry x="820" y="550" width="40" height="40" as="geometry" />
        </mxCell>
        <mxCell id="jZNgXRMAR-QyzdiI5EhI-206" value="" style="ellipse;whiteSpace=wrap;html=1;aspect=fixed;strokeColor=#000000;fillColor=#000000;" vertex="1" parent="1">
          <mxGeometry x="823.5" y="553.5" width="33" height="33" as="geometry" />
        </mxCell>
        <mxCell id="jZNgXRMAR-QyzdiI5EhI-208" value="" style="ellipse;whiteSpace=wrap;html=1;aspect=fixed;strokeColor=#000000;fillColor=#FFFFFF;strokeWidth=2;" vertex="1" parent="1">
          <mxGeometry x="1040" y="414" width="40" height="40" as="geometry" />
        </mxCell>
        <mxCell id="jZNgXRMAR-QyzdiI5EhI-209" value="" style="ellipse;whiteSpace=wrap;html=1;aspect=fixed;strokeColor=#000000;fillColor=#000000;" vertex="1" parent="1">
          <mxGeometry x="1043.5" y="417.5" width="33" height="33" as="geometry" />
        </mxCell>
      </root>
    </mxGraphModel>
  </diagram>
</mxfile>
